<svg width="37" height="48" viewBox="0 0 37 48" fill="none" xmlns="http://www.w3.org/2000/svg">
<path d="M9.68792 0C9.68792 0 5.44742 10.374 23.6213 17.3422C33.4965 21.1274 41.0813 30.8294 32.0251 45.8165C31.2751 39.1175 28.0591 24.3471 14.2307 20.9766C14.2307 20.9766 27.1014 25.7893 28.2383 47.5745C21.6248 48.503 6.11422 49.127 1.50916 35.6668C-4.5718 17.8829 9.68792 0 9.68792 0Z" fill="#055340"/>
<path d="M28.2324 47.4838C14.1925 41.8806 3.9767 28.7542 2.56677 13.0845C5.43697 5.3422 9.68797 0 9.68797 0C9.68797 0 5.44747 10.374 23.6214 17.3422C33.4966 21.1274 41.0814 30.8294 32.0252 45.8165C31.2752 39.1175 28.0592 24.3471 14.2308 20.9766C14.2308 20.9766 27.064 25.7774 28.2324 47.4838Z" fill="#05664E"/>
<path d="M33.4261 17.688C32.7012 17.688 32.1136 17.1004 32.1136 16.3755C32.1136 15.6506 32.7012 15.0629 33.4261 15.0629C34.151 15.0629 34.7386 15.6506 34.7386 16.3755C34.7386 17.1004 34.151 17.688 33.4261 17.688Z" fill="#055340"/>
<path d="M29.3011 16.0004C28.7833 16.0004 28.3636 15.5807 28.3636 15.0629C28.3636 14.5452 28.7833 14.1254 29.3011 14.1254C29.8188 14.1254 30.2386 14.5452 30.2386 15.0629C30.2386 15.5807 29.8188 16.0004 29.3011 16.0004Z" fill="#05664E"/>
<path d="M30.1448 8.50046C28.8504 8.50046 27.8011 7.45115 27.8011 6.15675C27.8011 4.86236 28.8504 3.81305 30.1448 3.81305C31.4392 3.81305 32.4885 4.86236 32.4885 6.15675C32.4885 7.45115 31.4392 8.50046 30.1448 8.50046Z" fill="#05664E"/>
<path d="M22.9261 12.2505C22.5119 12.2505 22.1761 11.9147 22.1761 11.5005C22.1761 11.0863 22.5119 10.7505 22.9261 10.7505C23.3403 10.7505 23.6761 11.0863 23.6761 11.5005C23.6761 11.9147 23.3403 12.2505 22.9261 12.2505Z" fill="#05664E"/>
<path d="M16.6443 9.43794C15.4534 9.43794 14.488 8.47257 14.488 7.28171C14.488 6.09086 15.4534 5.12549 16.6443 5.12549C17.8351 5.12549 18.8005 6.09086 18.8005 7.28171C18.8005 8.47257 17.8351 9.43794 16.6443 9.43794Z" fill="#05664E"/>
</svg>
