<svg viewBox="0 0 64 64" fill="none" xmlns="http://www.w3.org/2000/svg">
<path d="M32 62C15.458 62 2 48.542 2 32C2 15.458 15.458 2 32 2C48.542 2 62 15.458 62 32C62 48.542 48.542 62 32 62ZM32 4C16.56 4 4 16.56 4 32C4 47.44 16.56 60 32 60C47.44 60 60 47.44 60 32C60 16.56 47.44 4 32 4Z" fill="#058270"/>
<path d="M47.28 41.426L37.756 38.122L37.11 32.954C36.68 33.568 36.064 34.046 35.262 34.296L35.848 38.986C35.894 39.364 36.152 39.684 36.512 39.806L46.622 43.318C48.422 43.946 50 46.172 50 48.08V48.066C50 48.618 50.448 49.066 51 49.066C51.55 49.066 51.998 48.62 52 48.07C51.994 45.312 49.88 42.336 47.28 41.426Z" fill="#058270"/>
<path d="M13 49.064C12.448 49.064 12 48.616 12 48.064V48.078C12 45.32 14.118 42.336 16.718 41.426L26.242 38.144L26.266 37.584C26.334 37.036 26.844 36.654 27.384 36.716C27.93 36.784 28.32 37.284 28.252 37.834L28.15 39.012C28.104 39.39 27.844 39.708 27.484 39.832L17.376 43.316C15.578 43.946 14 46.172 14 48.078V48.064C14 48.618 13.552 49.064 13 49.064Z" fill="#058270"/>
<path d="M31.9999 36.078C26.4419 36.078 23.6159 32.39 23.5979 23.14C23.5939 20.792 23.8439 18.414 26.0519 16.202C27.4579 14.792 29.4579 14.078 31.9999 14.078C34.5419 14.078 36.5419 14.792 37.9499 16.204C40.1579 18.414 40.4079 20.794 40.4039 23.142C40.3839 32.39 37.5579 36.078 31.9999 36.078ZM31.9999 16.078C29.9819 16.078 28.4999 16.582 27.4659 17.616C26.2019 18.882 25.5899 20.016 25.5959 23.138C25.6119 31.174 27.7059 34.08 31.9979 34.08C36.2899 34.08 38.3839 31.174 38.3999 23.138C38.4059 20.016 37.7939 18.882 36.5299 17.616C35.4999 16.582 34.0179 16.078 31.9999 16.078Z" fill="#058270"/>
</svg>
