<svg width="50" height="50" viewBox="0 0 50 50" fill="none" xmlns="http://www.w3.org/2000/svg">
<path d="M3.66368 33.0848L1.40674 28.7793L3.55952 27.6515C6.88313 25.9084 10.479 23.7932 11.0776 20.7321C11.5428 18.3515 10.229 15.3112 7.17202 11.6959L5.60257 9.84039L9.31368 6.7015L10.8831 8.55705C14.9956 13.4209 16.6206 17.7084 15.847 21.664C14.7526 27.2709 8.93729 30.3182 5.81507 31.9557L3.66368 33.0848ZM29.0692 48.5376L27.9415 46.3848C26.1984 43.0598 24.0831 39.4654 21.022 38.8668C18.6428 38.4001 15.6012 39.7154 11.9859 42.7723L10.1303 44.3418L6.99146 40.6307L8.84702 39.0612C13.7095 34.9473 17.9928 33.3196 21.954 34.0973C27.5609 35.1918 30.6081 41.0057 32.2456 44.1293L33.3734 46.2821L29.0692 48.5376ZM40.9178 42.9515L39.3484 41.0959C35.2345 36.2321 33.6109 31.9446 34.3845 27.9876C35.479 22.3821 41.2928 19.3348 44.4165 17.6973L46.5692 16.5696L48.8262 20.8751L46.6734 22.0029C43.3484 23.7459 39.754 25.8612 39.1553 28.9209C38.6901 31.3029 40.004 34.3418 43.0595 37.9571L44.629 39.8126L40.9178 42.9515ZM30.2123 15.7459C29.5581 15.7459 28.9151 15.6834 28.279 15.5598C22.672 14.4654 19.6248 8.65011 17.9873 5.52789L16.8595 3.37511L21.1651 1.11816L22.2942 3.27094C24.0373 6.59455 26.1526 10.1904 29.2123 10.789C31.5887 11.2529 34.6317 9.94177 38.2484 6.88344L40.104 5.314L43.2428 9.02511L41.3873 10.5946C37.3026 14.0473 33.6262 15.7459 30.2123 15.7459Z" fill="black"/>
</svg>
