<svg width="485" height="120" viewBox="0 0 485 120" fill="none" xmlns="http://www.w3.org/2000/svg">
<rect width="472" height="89" rx="16" fill="url(#paint0_linear_2106_125)"/>
<path d="M69.1136 36.7287V33.6364H85.3608V36.7287H79.0668V54H75.4077V36.7287H69.1136ZM92.7809 54.2983C91.2894 54.2983 89.9968 53.9702 88.9031 53.3139C87.8093 52.6577 86.9608 51.7396 86.3576 50.5597C85.761 49.3797 85.4627 48.0009 85.4627 46.4233C85.4627 44.8456 85.761 43.4635 86.3576 42.277C86.9608 41.0904 87.8093 40.169 88.9031 39.5128C89.9968 38.8565 91.2894 38.5284 92.7809 38.5284C94.2724 38.5284 95.565 38.8565 96.6587 39.5128C97.7525 40.169 98.5977 41.0904 99.1942 42.277C99.7975 43.4635 100.099 44.8456 100.099 46.4233C100.099 48.0009 99.7975 49.3797 99.1942 50.5597C98.5977 51.7396 97.7525 52.6577 96.6587 53.3139C95.565 53.9702 94.2724 54.2983 92.7809 54.2983ZM92.8008 51.4148C93.6095 51.4148 94.2856 51.1927 94.8292 50.7486C95.3728 50.2978 95.7771 49.6946 96.0423 48.9389C96.314 48.1832 96.4499 47.3414 96.4499 46.4134C96.4499 45.4787 96.314 44.6335 96.0423 43.8778C95.7771 43.1155 95.3728 42.509 94.8292 42.0582C94.2856 41.6075 93.6095 41.3821 92.8008 41.3821C91.9722 41.3821 91.2828 41.6075 90.7326 42.0582C90.189 42.509 89.7814 43.1155 89.5096 43.8778C89.2444 44.6335 89.1119 45.4787 89.1119 46.4134C89.1119 47.3414 89.2444 48.1832 89.5096 48.9389C89.7814 49.6946 90.189 50.2978 90.7326 50.7486C91.2828 51.1927 91.9722 51.4148 92.8008 51.4148ZM111.944 49.8139L116.478 38.7273H119.381L113.207 54H110.691L104.656 38.7273H107.529L111.944 49.8139ZM106.624 38.7273V54H103.154V38.7273H106.624ZM117.413 54V38.7273H120.853V54H117.413ZM136.722 33.0795L137.975 35.4062C137.531 35.7907 137.034 36.0691 136.484 36.2415C135.933 36.4138 135.287 36.5265 134.545 36.5795C133.809 36.6259 132.934 36.6591 131.92 36.679C130.78 36.7055 129.848 36.9209 129.126 37.3253C128.403 37.7296 127.85 38.3428 127.465 39.1648C127.081 39.9801 126.829 41.0208 126.71 42.2869H126.879C127.356 41.3523 128.025 40.6397 128.887 40.1491C129.749 39.6586 130.76 39.4134 131.92 39.4134C133.186 39.4134 134.303 39.6984 135.271 40.2685C136.245 40.8319 137.004 41.6506 137.548 42.7244C138.098 43.7983 138.373 45.0975 138.373 46.6222C138.373 48.1932 138.078 49.5554 137.488 50.7088C136.898 51.8556 136.059 52.7405 134.972 53.3636C133.892 53.9867 132.609 54.2983 131.124 54.2983C129.646 54.2983 128.36 53.9768 127.266 53.3338C126.179 52.6842 125.337 51.7263 124.741 50.4602C124.151 49.1875 123.856 47.6198 123.856 45.7571V44.3849C123.856 40.7921 124.525 38.1108 125.864 36.3409C127.203 34.571 129.189 33.6695 131.82 33.6364C132.603 33.6231 133.302 33.6198 133.918 33.6264C134.541 33.633 135.085 33.6032 135.549 33.5369C136.013 33.4706 136.404 33.3182 136.722 33.0795ZM131.144 51.4148C131.88 51.4148 132.516 51.2259 133.053 50.848C133.59 50.4635 134.001 49.92 134.286 49.2173C134.578 48.5147 134.724 47.6828 134.724 46.7216C134.724 45.7737 134.578 44.9683 134.286 44.3054C133.995 43.6359 133.58 43.1255 133.043 42.7741C132.506 42.4228 131.867 42.2472 131.124 42.2472C130.567 42.2472 130.067 42.3466 129.623 42.5455C129.179 42.7443 128.801 43.036 128.489 43.4205C128.178 43.8049 127.939 44.2723 127.773 44.8224C127.608 45.3726 127.518 46.0057 127.505 46.7216C127.505 48.16 127.83 49.3035 128.479 50.152C129.129 50.9938 130.017 51.4148 131.144 51.4148ZM148.097 54.2983C146.606 54.2983 145.313 53.9702 144.219 53.3139C143.126 52.6577 142.277 51.7396 141.674 50.5597C141.077 49.3797 140.779 48.0009 140.779 46.4233C140.779 44.8456 141.077 43.4635 141.674 42.277C142.277 41.0904 143.126 40.169 144.219 39.5128C145.313 38.8565 146.606 38.5284 148.097 38.5284C149.589 38.5284 150.881 38.8565 151.975 39.5128C153.069 40.169 153.914 41.0904 154.511 42.277C155.114 43.4635 155.415 44.8456 155.415 46.4233C155.415 48.0009 155.114 49.3797 154.511 50.5597C153.914 51.7396 153.069 52.6577 151.975 53.3139C150.881 53.9702 149.589 54.2983 148.097 54.2983ZM148.117 51.4148C148.926 51.4148 149.602 51.1927 150.146 50.7486C150.689 50.2978 151.094 49.6946 151.359 48.9389C151.63 48.1832 151.766 47.3414 151.766 46.4134C151.766 45.4787 151.63 44.6335 151.359 43.8778C151.094 43.1155 150.689 42.509 150.146 42.0582C149.602 41.6075 148.926 41.3821 148.117 41.3821C147.289 41.3821 146.599 41.6075 146.049 42.0582C145.505 42.509 145.098 43.1155 144.826 43.8778C144.561 44.6335 144.428 45.4787 144.428 46.4134C144.428 47.3414 144.561 48.1832 144.826 48.9389C145.098 49.6946 145.505 50.2978 146.049 50.7486C146.599 51.1927 147.289 51.4148 148.117 51.4148ZM157.417 54L157.397 51.0369H157.924C158.321 51.0369 158.656 50.9474 158.928 50.7685C159.2 50.5895 159.425 50.2912 159.604 49.8736C159.783 49.4493 159.922 48.8793 160.022 48.1634C160.121 47.4474 160.191 46.5559 160.23 45.4886L160.499 38.7273H171.635V54H168.155V41.6804H163.77L163.532 46.6023C163.472 47.875 163.329 48.9787 163.104 49.9134C162.885 50.8414 162.574 51.607 162.169 52.2102C161.772 52.8134 161.271 53.2642 160.668 53.5625C160.065 53.8542 159.352 54 158.53 54H157.417ZM179.654 54.3082C178.687 54.3082 177.815 54.1359 177.039 53.7912C176.27 53.4399 175.661 52.9228 175.21 52.2401C174.766 51.5573 174.544 50.7154 174.544 49.7145C174.544 48.8527 174.703 48.1402 175.021 47.5767C175.339 47.0133 175.773 46.5625 176.324 46.2244C176.874 45.8864 177.493 45.6312 178.183 45.4588C178.879 45.2798 179.598 45.1506 180.341 45.071C181.235 44.9782 181.961 44.8954 182.518 44.8224C183.075 44.7429 183.479 44.6236 183.731 44.4645C183.99 44.2988 184.119 44.0436 184.119 43.6989V43.6392C184.119 42.8902 183.897 42.3101 183.453 41.8991C183.009 41.4882 182.369 41.2827 181.534 41.2827C180.652 41.2827 179.953 41.4749 179.436 41.8594C178.925 42.2438 178.581 42.6979 178.402 43.2216L175.041 42.7443C175.306 41.8163 175.743 41.0407 176.353 40.4176C176.963 39.7879 177.709 39.3172 178.591 39.0057C179.472 38.6875 180.447 38.5284 181.514 38.5284C182.25 38.5284 182.982 38.6146 183.711 38.7869C184.44 38.9593 185.107 39.2443 185.71 39.642C186.313 40.0331 186.797 40.5668 187.162 41.2429C187.533 41.919 187.718 42.7642 187.718 43.7784V54H184.258V51.902H184.139C183.92 52.3262 183.612 52.724 183.214 53.0952C182.823 53.4598 182.329 53.7547 181.733 53.9801C181.143 54.1989 180.45 54.3082 179.654 54.3082ZM180.589 51.6634C181.312 51.6634 181.938 51.5208 182.468 51.2358C182.999 50.9441 183.406 50.5597 183.691 50.0824C183.983 49.6051 184.129 49.0848 184.129 48.5213V46.7216C184.016 46.8144 183.824 46.9006 183.552 46.9801C183.287 47.0597 182.989 47.1293 182.657 47.1889C182.326 47.2486 181.998 47.3016 181.673 47.348C181.348 47.3944 181.066 47.4342 180.828 47.4673C180.291 47.5402 179.81 47.6596 179.386 47.8253C178.962 47.991 178.627 48.223 178.382 48.5213C178.136 48.813 178.014 49.1908 178.014 49.6548C178.014 50.3177 178.256 50.8182 178.74 51.1562C179.224 51.4943 179.84 51.6634 180.589 51.6634ZM208.773 44.8722V47.8253H200.64V44.8722H208.773ZM201.753 38.7273V54H198.283V38.7273H201.753ZM211.13 38.7273V54H207.669V38.7273H211.13ZM219.166 54.3082C218.198 54.3082 217.327 54.1359 216.551 53.7912C215.782 53.4399 215.172 52.9228 214.722 52.2401C214.277 51.5573 214.055 50.7154 214.055 49.7145C214.055 48.8527 214.214 48.1402 214.533 47.5767C214.851 47.0133 215.285 46.5625 215.835 46.2244C216.385 45.8864 217.005 45.6312 217.695 45.4588C218.391 45.2798 219.11 45.1506 219.852 45.071C220.747 44.9782 221.473 44.8954 222.03 44.8224C222.587 44.7429 222.991 44.6236 223.243 44.4645C223.501 44.2988 223.631 44.0436 223.631 43.6989V43.6392C223.631 42.8902 223.409 42.3101 222.964 41.8991C222.52 41.4882 221.881 41.2827 221.045 41.2827C220.164 41.2827 219.464 41.4749 218.947 41.8594C218.437 42.2438 218.092 42.6979 217.913 43.2216L214.553 42.7443C214.818 41.8163 215.255 41.0407 215.865 40.4176C216.475 39.7879 217.221 39.3172 218.102 39.0057C218.984 38.6875 219.958 38.5284 221.026 38.5284C221.761 38.5284 222.494 38.6146 223.223 38.7869C223.952 38.9593 224.618 39.2443 225.222 39.642C225.825 40.0331 226.309 40.5668 226.673 41.2429C227.045 41.919 227.23 42.7642 227.23 43.7784V54H223.77V51.902H223.651C223.432 52.3262 223.124 52.724 222.726 53.0952C222.335 53.4598 221.841 53.7547 221.244 53.9801C220.654 54.1989 219.962 54.3082 219.166 54.3082ZM220.101 51.6634C220.823 51.6634 221.45 51.5208 221.98 51.2358C222.51 50.9441 222.918 50.5597 223.203 50.0824C223.495 49.6051 223.641 49.0848 223.641 48.5213V46.7216C223.528 46.8144 223.336 46.9006 223.064 46.9801C222.799 47.0597 222.5 47.1293 222.169 47.1889C221.838 47.2486 221.509 47.3016 221.185 47.348C220.86 47.3944 220.578 47.4342 220.339 47.4673C219.803 47.5402 219.322 47.6596 218.898 47.8253C218.473 47.991 218.139 48.223 217.893 48.5213C217.648 48.813 217.526 49.1908 217.526 49.6548C217.526 50.3177 217.768 50.8182 218.251 51.1562C218.735 51.4943 219.352 51.6634 220.101 51.6634ZM244.457 54.2983C242.932 54.2983 241.623 53.9635 240.529 53.294C239.442 52.6245 238.603 51.6998 238.013 50.5199C237.43 49.3333 237.138 47.9678 237.138 46.4233C237.138 44.8722 237.437 43.5033 238.033 42.3168C238.63 41.1236 239.472 40.1955 240.559 39.5327C241.653 38.8632 242.945 38.5284 244.437 38.5284C245.676 38.5284 246.773 38.7571 247.728 39.2145C248.689 39.6652 249.455 40.3049 250.025 41.1335C250.595 41.9555 250.92 42.9167 250.999 44.017H247.559C247.42 43.2812 247.088 42.6681 246.565 42.1776C246.048 41.6804 245.355 41.4318 244.487 41.4318C243.751 41.4318 243.104 41.6307 242.548 42.0284C241.991 42.4195 241.557 42.983 241.245 43.7188C240.94 44.4545 240.788 45.3362 240.788 46.3636C240.788 47.4044 240.94 48.2992 241.245 49.0483C241.55 49.7907 241.978 50.3641 242.528 50.7685C243.085 51.1662 243.737 51.3651 244.487 51.3651C245.017 51.3651 245.491 51.2656 245.908 51.0668C246.333 50.8613 246.687 50.5663 246.972 50.1818C247.257 49.7973 247.453 49.33 247.559 48.7798H250.999C250.913 49.8603 250.595 50.8182 250.045 51.6534C249.495 52.482 248.746 53.1316 247.798 53.6023C246.85 54.0663 245.736 54.2983 244.457 54.2983ZM256.192 59.7273C255.702 59.7273 255.248 59.6875 254.83 59.608C254.419 59.535 254.091 59.4489 253.846 59.3494L254.681 56.5455C255.204 56.6979 255.672 56.7708 256.083 56.7642C256.494 56.7576 256.855 56.6283 257.167 56.3764C257.485 56.1312 257.753 55.7202 257.972 55.1435L258.28 54.3182L252.742 38.7273H256.56L260.08 50.2614H260.239L263.769 38.7273H267.597L261.482 55.8494C261.197 56.6581 260.819 57.3509 260.348 57.9276C259.878 58.5109 259.301 58.955 258.618 59.2599C257.942 59.5715 257.133 59.7273 256.192 59.7273ZM278.877 49.8139L283.412 38.7273H286.315L280.14 54H277.625L271.589 38.7273H274.463L278.877 49.8139ZM273.558 38.7273V54H270.088V38.7273H273.558ZM284.346 54V38.7273H287.787V54H284.346ZM295.811 54.3082C294.843 54.3082 293.971 54.1359 293.196 53.7912C292.427 53.4399 291.817 52.9228 291.366 52.2401C290.922 51.5573 290.7 50.7154 290.7 49.7145C290.7 48.8527 290.859 48.1402 291.177 47.5767C291.495 47.0133 291.93 46.5625 292.48 46.2244C293.03 45.8864 293.65 45.6312 294.339 45.4588C295.035 45.2798 295.754 45.1506 296.497 45.071C297.392 44.9782 298.118 44.8954 298.674 44.8224C299.231 44.7429 299.636 44.6236 299.887 44.4645C300.146 44.2988 300.275 44.0436 300.275 43.6989V43.6392C300.275 42.8902 300.053 42.3101 299.609 41.8991C299.165 41.4882 298.525 41.2827 297.69 41.2827C296.808 41.2827 296.109 41.4749 295.592 41.8594C295.082 42.2438 294.737 42.6979 294.558 43.2216L291.197 42.7443C291.462 41.8163 291.9 41.0407 292.51 40.4176C293.119 39.7879 293.865 39.3172 294.747 39.0057C295.628 38.6875 296.603 38.5284 297.67 38.5284C298.406 38.5284 299.138 38.6146 299.868 38.7869C300.597 38.9593 301.263 39.2443 301.866 39.642C302.469 40.0331 302.953 40.5668 303.318 41.2429C303.689 41.919 303.875 42.7642 303.875 43.7784V54H300.414V51.902H300.295C300.076 52.3262 299.768 52.724 299.37 53.0952C298.979 53.4598 298.485 53.7547 297.889 53.9801C297.299 54.1989 296.606 54.3082 295.811 54.3082ZM296.745 51.6634C297.468 51.6634 298.094 51.5208 298.625 51.2358C299.155 50.9441 299.563 50.5597 299.848 50.0824C300.139 49.6051 300.285 49.0848 300.285 48.5213V46.7216C300.172 46.8144 299.98 46.9006 299.708 46.9801C299.443 47.0597 299.145 47.1293 298.814 47.1889C298.482 47.2486 298.154 47.3016 297.829 47.348C297.504 47.3944 297.223 47.4342 296.984 47.4673C296.447 47.5402 295.967 47.6596 295.542 47.8253C295.118 47.991 294.783 48.223 294.538 48.5213C294.293 48.813 294.17 49.1908 294.17 49.6548C294.17 50.3177 294.412 50.8182 294.896 51.1562C295.38 51.4943 295.996 51.6634 296.745 51.6634ZM322.682 33.6364V54H318.993V37.2259H318.874L314.111 40.2685V36.8878L319.172 33.6364H322.682ZM334.932 54.2784C333.606 54.2784 332.42 54.0298 331.373 53.5327C330.325 53.0289 329.493 52.3395 328.877 51.4645C328.267 50.5895 327.942 49.5885 327.902 48.4616H331.482C331.548 49.2969 331.909 49.9796 332.566 50.5099C333.222 51.0336 334.011 51.2955 334.932 51.2955C335.655 51.2955 336.298 51.1297 336.861 50.7983C337.425 50.4669 337.869 50.0062 338.194 49.4162C338.518 48.8262 338.677 48.1534 338.671 47.3977C338.677 46.6288 338.515 45.946 338.184 45.3494C337.852 44.7528 337.398 44.2855 336.821 43.9474C336.245 43.6027 335.582 43.4304 334.833 43.4304C334.223 43.4238 333.623 43.5365 333.033 43.7685C332.443 44.0005 331.976 44.3054 331.631 44.6832L328.3 44.1364L329.364 33.6364H341.176V36.7188H332.417L331.83 42.1179H331.949C332.327 41.6738 332.861 41.3059 333.55 41.0142C334.239 40.7159 334.995 40.5668 335.817 40.5668C337.05 40.5668 338.15 40.8584 339.118 41.4418C340.086 42.0185 340.848 42.8139 341.405 43.8281C341.962 44.8423 342.24 46.0024 342.24 47.3082C342.24 48.6539 341.929 49.8537 341.306 50.9077C340.689 51.955 339.831 52.7803 338.73 53.3835C337.637 53.9801 336.371 54.2784 334.932 54.2784ZM353.098 54.3878C351.461 54.3878 350.056 53.9735 348.882 53.1449C347.716 52.3097 346.818 51.1065 346.188 49.5355C345.565 47.9579 345.253 46.0587 345.253 43.8381C345.26 41.6174 345.575 39.7282 346.198 38.1705C346.828 36.6061 347.726 35.4129 348.892 34.5909C350.066 33.7689 351.468 33.358 353.098 33.358C354.729 33.358 356.131 33.7689 357.304 34.5909C358.478 35.4129 359.376 36.6061 359.999 38.1705C360.629 39.7348 360.944 41.6241 360.944 43.8381C360.944 46.0653 360.629 47.9678 359.999 49.5455C359.376 51.1165 358.478 52.3163 357.304 53.1449C356.138 53.9735 354.736 54.3878 353.098 54.3878ZM353.098 51.2756C354.371 51.2756 355.375 50.6491 356.111 49.3963C356.854 48.1368 357.225 46.2841 357.225 43.8381C357.225 42.2206 357.056 40.8617 356.718 39.7614C356.38 38.661 355.902 37.8324 355.286 37.2756C354.669 36.7121 353.94 36.4304 353.098 36.4304C351.832 36.4304 350.831 37.0601 350.096 38.3196C349.36 39.5724 348.989 41.4119 348.982 43.8381C348.975 45.4621 349.138 46.8277 349.469 47.9347C349.807 49.0417 350.284 49.8769 350.901 50.4403C351.517 50.9972 352.25 51.2756 353.098 51.2756ZM363.233 54L363.213 51.0369H363.74C364.138 51.0369 364.473 50.9474 364.744 50.7685C365.016 50.5895 365.241 50.2912 365.42 49.8736C365.599 49.4493 365.739 48.8793 365.838 48.1634C365.938 47.4474 366.007 46.5559 366.047 45.4886L366.315 38.7273H377.452V54H373.972V41.6804H369.587L369.348 46.6023C369.288 47.875 369.146 48.9787 368.92 49.9134C368.702 50.8414 368.39 51.607 367.986 52.2102C367.588 52.8134 367.088 53.2642 366.484 53.5625C365.881 53.8542 365.169 54 364.347 54H363.233ZM381.076 54V38.7273H387.489C389.299 38.7273 390.728 39.0885 391.775 39.8111C392.829 40.5336 393.356 41.5412 393.356 42.8338C393.356 43.6889 393.058 44.3883 392.461 44.9318C391.871 45.4687 391.066 45.83 390.045 46.0156C390.847 46.0819 391.549 46.2841 392.153 46.6222C392.763 46.9602 393.24 47.4044 393.585 47.9545C393.929 48.5047 394.102 49.1378 394.102 49.8537C394.102 50.6955 393.879 51.428 393.435 52.0511C392.998 52.6676 392.358 53.1482 391.516 53.4929C390.681 53.831 389.667 54 388.474 54H381.076ZM384.447 51.1662H388.474C389.137 51.1662 389.657 51.0104 390.035 50.6989C390.413 50.3807 390.602 49.9498 390.602 49.4062C390.602 48.7765 390.413 48.2827 390.035 47.9247C389.657 47.5601 389.137 47.3778 388.474 47.3778H384.447V51.1662ZM384.447 45.0511H387.559C388.049 45.0511 388.47 44.9815 388.822 44.8423C389.173 44.6965 389.442 44.4943 389.627 44.2358C389.813 43.9706 389.906 43.6558 389.906 43.2912C389.906 42.7675 389.69 42.3565 389.259 42.0582C388.835 41.7599 388.245 41.6108 387.489 41.6108H384.447V45.0511ZM401.477 33.6364L401.149 48.0142H397.947L397.629 33.6364H401.477ZM399.548 54.2188C398.945 54.2188 398.428 54.0066 397.997 53.5824C397.573 53.1581 397.36 52.6411 397.36 52.0312C397.36 51.4347 397.573 50.9242 397.997 50.5C398.428 50.0758 398.945 49.8636 399.548 49.8636C400.138 49.8636 400.648 50.0758 401.079 50.5C401.517 50.9242 401.735 51.4347 401.735 52.0312C401.735 52.4356 401.633 52.8035 401.427 53.1349C401.228 53.4664 400.963 53.7315 400.632 53.9304C400.307 54.1226 399.946 54.2188 399.548 54.2188Z" fill="white"/>
<path d="M432.936 67.936L427.71 62.71M460.808 67.936L466.034 62.71M427.71 101.034L432.936 95.8079M446.872 60.968V54M425.968 81.8719H419M468.334 102.737L481.893 97.4311C483.37 96.8535 483.369 94.7638 481.892 94.1865L449.308 81.4535C447.894 80.901 446.499 82.296 447.051 83.7101L459.784 116.294C460.362 117.771 462.451 117.772 463.029 116.295L468.334 102.737Z" stroke="#050003" stroke-width="4" stroke-linecap="round" stroke-linejoin="round"/>
<path d="M22.25 108.199C21.1799 108.199 20.2685 107.908 19.5156 107.325C18.7628 106.738 18.1875 105.888 17.7898 104.776C17.392 103.658 17.1932 102.309 17.1932 100.727C17.1932 99.1553 17.392 97.813 17.7898 96.7003C18.1922 95.5829 18.7699 94.7306 19.5227 94.1435C20.2803 93.5516 21.1894 93.2557 22.25 93.2557C23.3106 93.2557 24.2173 93.5516 24.9702 94.1435C25.7277 94.7306 26.3054 95.5829 26.7031 96.7003C27.1056 97.813 27.3068 99.1553 27.3068 100.727C27.3068 102.309 27.108 103.658 26.7102 104.776C26.3125 105.888 25.7372 106.738 24.9844 107.325C24.2315 107.908 23.3201 108.199 22.25 108.199ZM22.25 106.636C23.3106 106.636 24.1345 106.125 24.7216 105.102C25.3087 104.08 25.6023 102.621 25.6023 100.727C25.6023 99.4678 25.4673 98.3954 25.1974 97.5099C24.9323 96.6245 24.5488 95.9498 24.0469 95.4858C23.5497 95.0218 22.9508 94.7898 22.25 94.7898C21.1989 94.7898 20.3774 95.3082 19.7855 96.3452C19.1937 97.3774 18.8977 98.8381 18.8977 100.727C18.8977 101.987 19.0303 103.057 19.2955 103.938C19.5606 104.818 19.9418 105.488 20.4389 105.947C20.9408 106.407 21.5445 106.636 22.25 106.636ZM30.0696 108L36.5753 95.1307V95.017H29.0753V93.4545H38.3935V95.1023L31.9162 108H30.0696ZM41.6072 106.139C41.2569 106.139 40.9562 106.014 40.7053 105.763C40.4543 105.512 40.3288 105.211 40.3288 104.861C40.3288 104.51 40.4543 104.21 40.7053 103.959C40.9562 103.708 41.2569 103.582 41.6072 103.582C41.9576 103.582 42.2583 103.708 42.5092 103.959C42.7602 104.21 42.8857 104.51 42.8857 104.861C42.8857 105.093 42.8265 105.306 42.7081 105.5C42.5945 105.694 42.4406 105.85 42.2464 105.969C42.0571 106.082 41.844 106.139 41.6072 106.139ZM41.6072 98.7812C41.2569 98.7812 40.9562 98.6558 40.7053 98.4048C40.4543 98.1539 40.3288 97.8532 40.3288 97.5028C40.3288 97.1525 40.4543 96.8518 40.7053 96.6009C40.9562 96.3499 41.2569 96.2244 41.6072 96.2244C41.9576 96.2244 42.2583 96.3499 42.5092 96.6009C42.7602 96.8518 42.8857 97.1525 42.8857 97.5028C42.8857 97.7348 42.8265 97.9479 42.7081 98.142C42.5945 98.3362 42.4406 98.4924 42.2464 98.6108C42.0571 98.7244 41.844 98.7812 41.6072 98.7812ZM45.8651 108V106.722L50.6662 101.466C51.2296 100.85 51.6937 100.315 52.0582 99.8608C52.4228 99.4015 52.6927 98.9706 52.8679 98.5682C53.0478 98.161 53.1378 97.7348 53.1378 97.2898C53.1378 96.7784 53.0147 96.3357 52.7685 95.9616C52.527 95.5876 52.1955 95.2988 51.7741 95.0952C51.3527 94.8916 50.8793 94.7898 50.3537 94.7898C49.795 94.7898 49.3073 94.9058 48.8906 95.1378C48.4787 95.3651 48.1591 95.6847 47.9318 96.0966C47.7093 96.5085 47.598 96.9915 47.598 97.5455H45.9219C45.9219 96.6932 46.1184 95.9451 46.5114 95.3011C46.9044 94.6572 47.4394 94.1553 48.1165 93.7955C48.7983 93.4356 49.563 93.2557 50.4105 93.2557C51.2628 93.2557 52.018 93.4356 52.6761 93.7955C53.3343 94.1553 53.8504 94.6406 54.2244 95.2514C54.5985 95.8622 54.7855 96.5417 54.7855 97.2898C54.7855 97.8248 54.6884 98.348 54.4943 98.8594C54.3049 99.366 53.9735 99.9318 53.5 100.557C53.0312 101.177 52.3802 101.935 51.5469 102.83L48.2798 106.324V106.438H55.0412V108H45.8651ZM62.8892 108.199C61.9517 108.199 61.116 108.038 60.3821 107.716C59.6529 107.394 59.0729 106.946 58.642 106.374C58.2159 105.796 57.9839 105.126 57.946 104.364H59.7358C59.7737 104.832 59.9347 105.237 60.2188 105.578C60.5028 105.914 60.8745 106.175 61.3338 106.359C61.7931 106.544 62.3021 106.636 62.8608 106.636C63.4858 106.636 64.0398 106.527 64.5227 106.31C65.0057 106.092 65.3845 105.789 65.6591 105.401C65.9337 105.012 66.071 104.562 66.071 104.051C66.071 103.516 65.9384 103.045 65.6733 102.638C65.4081 102.226 65.0199 101.904 64.5085 101.672C63.9972 101.44 63.3722 101.324 62.6335 101.324H61.4688V99.7614H62.6335C63.2112 99.7614 63.7178 99.6572 64.1534 99.4489C64.5938 99.2405 64.937 98.947 65.1832 98.5682C65.4342 98.1894 65.5597 97.7443 65.5597 97.233C65.5597 96.7405 65.4508 96.312 65.233 95.9474C65.0152 95.5829 64.7074 95.2988 64.3097 95.0952C63.9167 94.8916 63.4527 94.7898 62.9176 94.7898C62.4157 94.7898 61.9422 94.8821 61.4972 95.0668C61.0568 95.2467 60.697 95.5095 60.4176 95.8551C60.1383 96.196 59.9867 96.608 59.9631 97.0909H58.2585C58.2869 96.3286 58.5166 95.661 58.9474 95.0881C59.3783 94.5104 59.9418 94.0606 60.6378 93.7386C61.3385 93.4167 62.108 93.2557 62.946 93.2557C63.8456 93.2557 64.6174 93.438 65.2614 93.8026C65.9053 94.1624 66.4001 94.6383 66.7457 95.2301C67.0914 95.822 67.2642 96.4612 67.2642 97.1477C67.2642 97.9669 67.0488 98.6652 66.6179 99.2429C66.1918 99.8205 65.6117 100.221 64.8778 100.443V100.557C65.7964 100.708 66.5137 101.099 67.0298 101.729C67.5459 102.354 67.804 103.128 67.804 104.051C67.804 104.842 67.5885 105.552 67.1577 106.182C66.7315 106.807 66.1491 107.299 65.4105 107.659C64.6719 108.019 63.8314 108.199 62.8892 108.199ZM71.9588 106.139C71.6084 106.139 71.3078 106.014 71.0568 105.763C70.8059 105.512 70.6804 105.211 70.6804 104.861C70.6804 104.51 70.8059 104.21 71.0568 103.959C71.3078 103.708 71.6084 103.582 71.9588 103.582C72.3092 103.582 72.6098 103.708 72.8608 103.959C73.1117 104.21 73.2372 104.51 73.2372 104.861C73.2372 105.093 73.178 105.306 73.0597 105.5C72.946 105.694 72.7921 105.85 72.598 105.969C72.4086 106.082 72.1955 106.139 71.9588 106.139ZM71.9588 98.7812C71.6084 98.7812 71.3078 98.6558 71.0568 98.4048C70.8059 98.1539 70.6804 97.8532 70.6804 97.5028C70.6804 97.1525 70.8059 96.8518 71.0568 96.6009C71.3078 96.3499 71.6084 96.2244 71.9588 96.2244C72.3092 96.2244 72.6098 96.3499 72.8608 96.6009C73.1117 96.8518 73.2372 97.1525 73.2372 97.5028C73.2372 97.7348 73.178 97.9479 73.0597 98.142C72.946 98.3362 72.7921 98.4924 72.598 98.6108C72.4086 98.7244 72.1955 98.7812 71.9588 98.7812ZM80.7621 108.199C79.9287 108.199 79.1783 108.033 78.5107 107.702C77.843 107.37 77.308 106.916 76.9055 106.338C76.5031 105.76 76.2829 105.102 76.245 104.364H77.9496C78.0159 105.022 78.3142 105.566 78.8445 105.997C79.3795 106.423 80.0187 106.636 80.7621 106.636C81.3587 106.636 81.889 106.497 82.353 106.217C82.8217 105.938 83.1887 105.554 83.4538 105.067C83.7237 104.574 83.8587 104.018 83.8587 103.398C83.8587 102.763 83.719 102.197 83.4396 101.7C83.165 101.198 82.7862 100.803 82.3033 100.514C81.8203 100.225 81.2687 100.079 80.6484 100.074C80.2034 100.069 79.7464 100.138 79.2777 100.28C78.8089 100.417 78.4231 100.595 78.12 100.812L76.4723 100.614L77.353 93.4545H84.9098V95.017H78.8303L78.3189 99.3068H78.4041C78.7024 99.0701 79.0765 98.8736 79.5263 98.7173C79.9761 98.5611 80.4448 98.483 80.9325 98.483C81.8227 98.483 82.6158 98.696 83.3118 99.1222C84.0125 99.5436 84.5618 100.121 84.9595 100.855C85.362 101.589 85.5632 102.427 85.5632 103.369C85.5632 104.297 85.3549 105.126 84.9382 105.855C84.5263 106.58 83.9581 107.152 83.2337 107.574C82.5092 107.991 81.6854 108.199 80.7621 108.199ZM93.0153 93.2557C93.6119 93.2604 94.2085 93.3741 94.805 93.5966C95.4016 93.8191 95.9461 94.1884 96.4386 94.7045C96.931 95.2159 97.3263 95.9143 97.6246 96.7997C97.9229 97.6851 98.0721 98.7955 98.0721 100.131C98.0721 101.423 97.949 102.571 97.7028 103.575C97.4613 104.574 97.1109 105.417 96.6516 106.104C96.1971 106.79 95.6431 107.311 94.9897 107.666C94.341 108.021 93.6071 108.199 92.788 108.199C91.9736 108.199 91.2468 108.038 90.6076 107.716C89.9731 107.389 89.4523 106.937 89.0451 106.359C88.6426 105.777 88.3846 105.102 88.271 104.335H90.0039C90.1602 105.003 90.4703 105.554 90.9343 105.99C91.4031 106.421 92.021 106.636 92.788 106.636C93.9102 106.636 94.7956 106.146 95.4442 105.166C96.0977 104.186 96.4244 102.801 96.4244 101.011H96.3107C96.0456 101.409 95.7307 101.752 95.3661 102.041C95.0015 102.33 94.5967 102.553 94.1516 102.709C93.7066 102.865 93.2331 102.943 92.7312 102.943C91.8978 102.943 91.1332 102.737 90.4371 102.325C89.7459 101.909 89.1919 101.338 88.7752 100.614C88.3633 99.8845 88.1573 99.0511 88.1573 98.1136C88.1573 97.2235 88.3562 96.4091 88.7539 95.6705C89.1564 94.9271 89.7198 94.3352 90.4442 93.8949C91.1734 93.4545 92.0304 93.2415 93.0153 93.2557ZM93.0153 94.8182C92.4187 94.8182 91.8813 94.9673 91.4031 95.2656C90.9296 95.5592 90.5531 95.9569 90.2738 96.4588C89.9992 96.956 89.8619 97.5076 89.8619 98.1136C89.8619 98.7197 89.9944 99.2713 90.2596 99.7685C90.5295 100.261 90.8964 100.654 91.3604 100.947C91.8292 101.236 92.3619 101.381 92.9585 101.381C93.4083 101.381 93.8273 101.293 94.2156 101.118C94.6038 100.938 94.9424 100.694 95.2312 100.386C95.5247 100.074 95.7544 99.7211 95.9201 99.3281C96.0858 98.9304 96.1687 98.5161 96.1687 98.0852C96.1687 97.517 96.0314 96.9844 95.7567 96.4872C95.4869 95.9901 95.1128 95.5876 94.6346 95.2798C94.1611 94.9721 93.6213 94.8182 93.0153 94.8182ZM102.115 106.139C101.765 106.139 101.464 106.014 101.213 105.763C100.962 105.512 100.837 105.211 100.837 104.861C100.837 104.51 100.962 104.21 101.213 103.959C101.464 103.708 101.765 103.582 102.115 103.582C102.465 103.582 102.766 103.708 103.017 103.959C103.268 104.21 103.393 104.51 103.393 104.861C103.393 105.093 103.334 105.306 103.216 105.5C103.102 105.694 102.948 105.85 102.754 105.969C102.565 106.082 102.352 106.139 102.115 106.139ZM102.115 98.7812C101.765 98.7812 101.464 98.6558 101.213 98.4048C100.962 98.1539 100.837 97.8532 100.837 97.5028C100.837 97.1525 100.962 96.8518 101.213 96.6009C101.464 96.3499 101.765 96.2244 102.115 96.2244C102.465 96.2244 102.766 96.3499 103.017 96.6009C103.268 96.8518 103.393 97.1525 103.393 97.5028C103.393 97.7348 103.334 97.9479 103.216 98.142C103.102 98.3362 102.948 98.4924 102.754 98.6108C102.565 98.7244 102.352 98.7812 102.115 98.7812ZM111.117 108.199C110.047 108.199 109.136 107.908 108.383 107.325C107.63 106.738 107.055 105.888 106.657 104.776C106.259 103.658 106.06 102.309 106.06 100.727C106.06 99.1553 106.259 97.813 106.657 96.7003C107.059 95.5829 107.637 94.7306 108.39 94.1435C109.147 93.5516 110.057 93.2557 111.117 93.2557C112.178 93.2557 113.085 93.5516 113.837 94.1435C114.595 94.7306 115.173 95.5829 115.57 96.7003C115.973 97.813 116.174 99.1553 116.174 100.727C116.174 102.309 115.975 103.658 115.577 104.776C115.18 105.888 114.604 106.738 113.852 107.325C113.099 107.908 112.187 108.199 111.117 108.199ZM111.117 106.636C112.178 106.636 113.002 106.125 113.589 105.102C114.176 104.08 114.469 102.621 114.469 100.727C114.469 99.4678 114.335 98.3954 114.065 97.5099C113.799 96.6245 113.416 95.9498 112.914 95.4858C112.417 95.0218 111.818 94.7898 111.117 94.7898C110.066 94.7898 109.245 95.3082 108.653 96.3452C108.061 97.3774 107.765 98.8381 107.765 100.727C107.765 101.987 107.897 103.057 108.163 103.938C108.428 104.818 108.809 105.488 109.306 105.947C109.808 106.407 110.412 106.636 111.117 106.636ZM123.788 108.199C122.85 108.199 122.014 108.038 121.281 107.716C120.551 107.394 119.971 106.946 119.54 106.374C119.114 105.796 118.882 105.126 118.844 104.364H120.634C120.672 104.832 120.833 105.237 121.117 105.578C121.401 105.914 121.773 106.175 122.232 106.359C122.692 106.544 123.201 106.636 123.759 106.636C124.384 106.636 124.938 106.527 125.421 106.31C125.904 106.092 126.283 105.789 126.558 105.401C126.832 105.012 126.969 104.562 126.969 104.051C126.969 103.516 126.837 103.045 126.572 102.638C126.307 102.226 125.918 101.904 125.407 101.672C124.896 101.44 124.271 101.324 123.532 101.324H122.367V99.7614H123.532C124.11 99.7614 124.616 99.6572 125.052 99.4489C125.492 99.2405 125.835 98.947 126.082 98.5682C126.333 98.1894 126.458 97.7443 126.458 97.233C126.458 96.7405 126.349 96.312 126.131 95.9474C125.914 95.5829 125.606 95.2988 125.208 95.0952C124.815 94.8916 124.351 94.7898 123.816 94.7898C123.314 94.7898 122.841 94.8821 122.396 95.0668C121.955 95.2467 121.595 95.5095 121.316 95.8551C121.037 96.196 120.885 96.608 120.862 97.0909H119.157C119.185 96.3286 119.415 95.661 119.846 95.0881C120.277 94.5104 120.84 94.0606 121.536 93.7386C122.237 93.4167 123.006 93.2557 123.844 93.2557C124.744 93.2557 125.516 93.438 126.16 93.8026C126.804 94.1624 127.299 94.6383 127.644 95.2301C127.99 95.822 128.163 96.4612 128.163 97.1477C128.163 97.9669 127.947 98.6652 127.516 99.2429C127.09 99.8205 126.51 100.221 125.776 100.443V100.557C126.695 100.708 127.412 101.099 127.928 101.729C128.444 102.354 128.702 103.128 128.702 104.051C128.702 104.842 128.487 105.552 128.056 106.182C127.63 106.807 127.048 107.299 126.309 107.659C125.57 108.019 124.73 108.199 123.788 108.199Z" fill="black"/>
<defs>
<linearGradient id="paint0_linear_2106_125" x1="0" y1="0" x2="472" y2="89" gradientUnits="userSpaceOnUse">
<stop stop-color="#F9CE34"/>
<stop offset="0.525" stop-color="#EE2A7B"/>
<stop offset="1" stop-color="#6228D7"/>
</linearGradient>
</defs>
</svg>
