<svg width="35" height="33" viewBox="0 0 35 33" fill="none" xmlns="http://www.w3.org/2000/svg">
<path d="M2 10.5H33.5M9 0V3.5M26.5 0V3.5M7.25 15.75H10.75M16 15.75H19.5M24.75 15.75H28.25M7.25 21H10.75M16 21H19.5M24.75 21H28.25M7.25 26.25H10.75M16 26.25H19.5M24.75 26.25H28.25M7.6 31.5H27.9C29.8602 31.5 30.8404 31.5 31.589 31.1185C32.2475 30.783 32.783 30.2475 33.1185 29.589C33.5 28.8404 33.5 27.8602 33.5 25.9V9.1C33.5 7.13981 33.5 6.15972 33.1185 5.41104C32.783 4.75246 32.2475 4.21703 31.589 3.88148C30.8404 3.5 29.8602 3.5 27.9 3.5H7.6C5.63982 3.5 4.65972 3.5 3.91104 3.88148C3.25246 4.21703 2.71703 4.75246 2.38148 5.41104C2 6.15972 2 7.13981 2 9.1V25.9C2 27.8602 2 28.8404 2.38148 29.589C2.71703 30.2475 3.25246 30.783 3.91104 31.1185C4.65972 31.5 5.63981 31.5 7.6 31.5Z" stroke="#058270" stroke-width="2.5" stroke-linecap="round"/>
</svg>
