<svg width="50" height="50" viewBox="0 0 50 50" fill="none" xmlns="http://www.w3.org/2000/svg">
<path d="M19.106 8.33341C19.9639 5.90594 22.2791 4.16675 25.0003 4.16675C27.7216 4.16675 30.0368 5.90594 30.8947 8.33341" stroke="black" stroke-width="3" stroke-linecap="round"/>
<path d="M25 46.3541C24.1371 46.3541 23.4375 47.0537 23.4375 47.9166C23.4375 48.7795 24.1371 49.4791 25 49.4791V46.3541ZM16.5724 49.341C17.4338 49.393 18.1743 48.737 18.2263 47.8758C18.2784 47.0143 17.6223 46.2739 16.7609 46.2218L16.5724 49.341ZM4.6875 27.0833C4.6875 30.9876 4.68579 35.0639 5.03906 38.4716C5.216 40.1783 5.48752 41.7808 5.91821 43.1468C6.3419 44.491 6.9675 45.7635 7.95781 46.6437L10.0339 44.308C9.65129 43.9678 9.24723 43.3133 8.89862 42.2074C8.55704 41.1237 8.31371 39.7537 8.1474 38.1495C7.81421 34.9353 7.8125 31.0355 7.8125 27.0833H4.6875ZM25 49.4791C29.38 49.4791 32.805 49.4818 35.4723 49.163C38.1675 48.8408 40.3267 48.1685 42.0423 46.6437L39.966 44.308C38.9356 45.2239 37.5121 45.772 35.1015 46.0601C32.6629 46.3514 29.4587 46.3541 25 46.3541V49.4791ZM16.7609 46.2218C13.1896 46.006 11.3156 45.4472 10.0339 44.308L7.95781 46.6437C10.0745 48.5251 12.8806 49.118 16.5724 49.341L16.7609 46.2218ZM42.1873 27.8901C42.1858 31.7051 42.1606 35.4233 41.8175 38.4735C41.6462 39.9962 41.4017 41.2918 41.0665 42.316C40.725 43.3595 40.3344 43.9808 39.966 44.308L42.0423 46.6437C42.9998 45.7924 43.615 44.5755 44.0365 43.288C44.4642 41.981 44.7398 40.4522 44.9229 38.8228C45.289 35.5689 45.3108 31.6733 45.3123 27.8914L42.1873 27.8901Z" fill="black"/>
<path d="M30.5421 31.2499L36.7998 29.6178M19.4575 31.2499L6.94234 27.9858C5.70171 27.6622 5.0814 27.5003 4.68777 27.1126C4.61111 27.037 4.54182 26.9562 4.48063 26.8705C4.1665 26.4314 4.1665 25.8683 4.1665 24.7422C4.1665 20.3045 4.1665 18.0856 5.56855 16.5875C5.83802 16.2996 6.14073 16.0364 6.4719 15.8022C8.19505 14.5833 10.7473 14.5833 15.8518 14.5833H34.148C39.2523 14.5833 41.8046 14.5833 43.5278 15.8022C43.859 16.0364 44.1617 16.2996 44.4311 16.5875C45.8332 18.0856 45.8332 20.3045 45.8332 24.7422C45.8332 25.8683 45.8332 26.4314 45.519 26.8705C45.458 26.9562 45.3886 27.037 45.3119 27.1126C44.9996 27.4203 44.5444 27.5858 43.7498 27.8026" stroke="black" stroke-width="3" stroke-linecap="round"/>
<path d="M29.1665 28.125H20.8332C20.2579 28.125 19.7915 28.5915 19.7915 29.1667V33.6698C19.7915 34.0956 20.0508 34.4787 20.4463 34.6369L21.9048 35.2204C23.8917 36.015 26.108 36.015 28.0948 35.2204L29.5534 34.6369C29.9488 34.4787 30.2082 34.0956 30.2082 33.6698V29.1667C30.2082 28.5915 29.7417 28.125 29.1665 28.125Z" stroke="black" stroke-width="3" stroke-linecap="round"/>
</svg>
