<svg width="24" height="25" viewBox="0 0 24 25" fill="none" xmlns="http://www.w3.org/2000/svg">
<path d="M12 0.76416C5.36229 0.76416 0 6.12645 0 12.7642C0 18.051 3.45086 22.5527 8.21143 24.1642C8.81143 24.2773 9.03771 23.9019 9.03771 23.6019V21.5773C5.7 22.2887 4.98686 19.9642 4.98686 19.9642C4.42457 18.5756 3.63771 18.2019 3.63771 18.2019C2.55086 17.451 3.71314 17.4887 3.71314 17.4887C4.91314 17.5642 5.54914 18.7264 5.54914 18.7264C6.63771 20.5642 8.36229 20.0396 9.03771 19.7379C9.15086 18.951 9.44914 18.4264 9.78686 18.1264C7.12457 17.8264 4.31314 16.7773 4.31314 12.2019C4.31314 10.8887 4.76229 9.83959 5.54914 8.9773C5.43771 8.6773 5.02457 7.43959 5.66229 5.78873C5.66229 5.78873 6.67371 5.45102 8.96229 7.02645C9.93996 6.75856 10.9486 6.62024 11.9623 6.61502C12.9737 6.61502 14.0246 6.76416 14.9623 7.02645C17.2509 5.48873 18.2623 5.78873 18.2623 5.78873C18.9 7.43959 18.4869 8.6773 18.3754 8.9773C19.164 9.80016 19.6131 10.8887 19.6131 12.2002C19.6131 16.8133 16.8 17.8264 14.1377 18.1264C14.5491 18.5019 14.9623 19.2133 14.9623 20.3379V23.6396C14.9623 23.9773 15.1869 24.351 15.7869 24.2019C20.5509 22.551 24 18.051 24 12.7642C24 6.12645 18.6377 0.76416 12 0.76416Z" fill="black"/>
</svg>
