<svg width="26" height="26" viewBox="0 0 26 26" fill="none" xmlns="http://www.w3.org/2000/svg">
<g clip-path="url(#clip0_2010_47)">
<path d="M13 5.14583C14.9175 5.14583 16.6346 5.80667 17.9887 7.09583L21.6992 3.38542C19.4458 1.28917 16.5046 0 13 0C7.91916 0 3.52624 2.91417 1.38666 7.16083L5.70916 10.5137C6.73291 7.43167 9.60916 5.14583 13 5.14583Z" fill="#EA4335"/>
<path d="M25.4475 13.298C25.4475 12.4475 25.3662 11.6242 25.2417 10.8334H13V15.7192H20.0092C19.695 17.3225 18.785 18.6875 17.42 19.6084L21.6071 22.8584C24.05 20.5942 25.4475 17.2467 25.4475 13.298Z" fill="#4285F4"/>
<path d="M5.70375 15.4863C5.44375 14.7009 5.29208 13.8667 5.29208 13.0001C5.29208 12.1334 5.43833 11.2992 5.70375 10.5138L1.38125 7.16089C0.498333 8.91589 0 10.8984 0 13.0001C0 15.1017 0.498333 17.0842 1.38667 18.8392L5.70375 15.4863Z" fill="#FBBC05"/>
<path d="M13 26C16.51 26 19.4621 24.8463 21.6071 22.8529L17.42 19.6029C16.2554 20.3883 14.755 20.8488 13 20.8488C9.60917 20.8488 6.73292 18.5629 5.70376 15.4808L1.38126 18.8338C3.52626 23.0858 7.91917 26 13 26Z" fill="#34A853"/>
</g>
<defs>
<clipPath id="clip0_2010_47">
<rect width="26" height="26" fill="white"/>
</clipPath>
</defs>
</svg>
