<svg width="48" height="48" viewBox="0 0 48 48" fill="none" xmlns="http://www.w3.org/2000/svg">
<path d="M15.6488 0C15.6488 0 11.4083 10.374 29.5822 17.3422C39.4574 21.1274 47.0422 30.8294 37.986 45.8165C37.236 39.1175 34.02 24.3471 20.1916 20.9766C20.1916 20.9766 33.0623 25.7893 34.1992 47.5745C27.5857 48.503 12.0751 49.127 7.47004 35.6668C1.38908 17.8829 15.6488 0 15.6488 0Z" fill="#055340"/>
<path d="M34.1932 47.4838C20.1533 41.8806 9.93753 28.7542 8.5276 13.0845C11.3978 5.3422 15.6488 0 15.6488 0C15.6488 0 11.4083 10.374 29.5822 17.3422C39.4574 21.1274 47.0422 30.8294 37.986 45.8165C37.236 39.1175 34.02 24.3471 20.1916 20.9766C20.1923 20.9767 33.0248 25.7774 34.1932 47.4838Z" fill="#05664E"/>
<path d="M39.3872 17.6881C38.6623 17.6881 38.0746 17.1004 38.0746 16.3755C38.0746 15.6506 38.6623 15.063 39.3872 15.063C40.1121 15.063 40.6997 15.6506 40.6997 16.3755C40.6997 17.1004 40.1121 17.6881 39.3872 17.6881Z" fill="#055340"/>
<path d="M35.2617 16.0005C34.744 16.0005 34.3243 15.5807 34.3243 15.063C34.3243 14.5452 34.744 14.1255 35.2617 14.1255C35.7795 14.1255 36.1992 14.5452 36.1992 15.063C36.1992 15.5807 35.7795 16.0005 35.2617 16.0005Z" fill="#05664E"/>
<path d="M36.1055 8.5004C34.8111 8.5004 33.7618 7.45109 33.7618 6.15669C33.7618 4.8623 34.8111 3.81299 36.1055 3.81299C37.3999 3.81299 38.4492 4.8623 38.4492 6.15669C38.4492 7.45109 37.3999 8.5004 36.1055 8.5004Z" fill="#05664E"/>
<path d="M28.8867 12.2505C28.4725 12.2505 28.1367 11.9147 28.1367 11.5005C28.1367 11.0863 28.4725 10.7505 28.8867 10.7505C29.3009 10.7505 29.6367 11.0863 29.6367 11.5005C29.6367 11.9147 29.3009 12.2505 28.8867 12.2505Z" fill="#05664E"/>
<path d="M22.605 9.43794C21.4142 9.43794 20.4488 8.47257 20.4488 7.28171C20.4488 6.09086 21.4142 5.12549 22.605 5.12549C23.7959 5.12549 24.7612 6.09086 24.7612 7.28171C24.7612 8.47257 23.7959 9.43794 22.605 9.43794Z" fill="#05664E"/>
</svg>
