<svg width="60" height="60" viewBox="0 0 60 60" fill="none" xmlns="http://www.w3.org/2000/svg">
<path d="M22.5049 17.5C22.5352 12.0624 22.7763 9.11765 24.6972 7.1967C26.894 5 30.4295 5 37.5005 5H40.0005C47.0715 5 50.6073 5 52.8038 7.1967C55.0005 9.3934 55.0005 12.9289 55.0005 20V40C55.0005 47.071 55.0005 50.6065 52.8038 52.8032C50.6073 55 47.0715 55 40.0005 55H37.5005C30.4295 55 26.894 55 24.6972 52.8032C22.7763 50.8822 22.5352 47.9375 22.5049 42.5" stroke="#FF3737" stroke-width="5" stroke-linecap="round"/>
<path d="M37.5 30H5M5 30L13.75 22.5M5 30L13.75 37.5" stroke="#FF3737" stroke-width="5" stroke-linecap="round" stroke-linejoin="round"/>
</svg>
