<svg width="41" height="41" viewBox="0 0 41 41" fill="none" xmlns="http://www.w3.org/2000/svg">
<path d="M39.5 2L29.0833 12.4167M29.0833 2L39.5 12.4167M34.2917 39.5C16.4575 39.5 2 25.0425 2 7.20833C2 6.40371 2.02944 5.60596 2.08727 4.8161C2.15365 3.90962 2.18683 3.4564 2.42438 3.04381C2.62113 2.7021 2.96979 2.37804 3.32496 2.20677C3.75377 2 4.25392 2 5.25419 2H11.1236C11.9647 2 12.3853 2 12.7459 2.13844C13.0644 2.26073 13.3479 2.45935 13.5717 2.71687C13.825 3.0084 13.9687 3.40367 14.2562 4.19419L16.6856 10.8751C17.02 11.7949 17.1873 12.2547 17.159 12.691C17.134 13.0758 17.0025 13.446 16.7796 13.7605C16.5268 14.1172 16.1072 14.369 15.268 14.8725L12.4167 16.5833C14.9206 22.1019 19.396 26.5831 24.9167 29.0833L26.6275 26.2321C27.131 25.3927 27.3827 24.9731 27.7394 24.7204C28.054 24.4975 28.4242 24.366 28.809 24.341C29.2452 24.3127 29.7052 24.48 30.625 24.8144L37.3058 27.2437C38.0962 27.5312 38.4917 27.675 38.7831 27.9283C39.0406 28.1521 39.2394 28.4356 39.3615 28.7542C39.5 29.1146 39.5 29.5352 39.5 30.3765V36.2458C39.5 37.246 39.5 37.7462 39.2931 38.175C39.1219 38.5302 38.7979 38.879 38.4562 39.0756C38.0435 39.3131 37.5904 39.3462 36.684 39.4127C35.894 39.4706 35.0962 39.5 34.2917 39.5Z" stroke="#FF0000" stroke-width="3" stroke-linecap="round" stroke-linejoin="round"/>
</svg>
