<svg width="46" height="40" viewBox="0 0 46 40" fill="none" xmlns="http://www.w3.org/2000/svg">
<g clip-path="url(#clip0_2215_146)">
<path d="M21.1258 13.3334L18.1688 12.0187C17.6483 11.7872 17.0743 11.6667 16.4924 11.6667H15.1815C14.1873 11.6667 13.2339 12.0179 12.5309 12.6431L10.9783 14.0238C10.2753 14.6489 9.88037 15.4967 9.88037 16.3808V24.8827C9.88037 25.9972 10.5067 27.0381 11.5496 27.6562L18.797 31.9527C20.1782 32.7717 22.0007 32.6851 23.2759 31.7401L32.3712 25.0001" stroke="black" stroke-width="3" stroke-linecap="round" stroke-linejoin="round"/>
<path d="M27.6014 21.5237C26.4705 20.1771 24.3891 19.7899 22.746 20.6202L19.2687 22.3777C18.1516 22.9422 16.7481 22.7736 15.8396 21.9657C14.6526 20.9101 14.741 19.1761 16.0306 18.2206L23.8319 12.4393C24.5057 11.9401 25.3548 11.6667 26.2317 11.6667H27.7382C28.3202 11.6667 28.8941 11.7872 29.4145 12.0187L34.0478 14.0788C35.3178 14.6434 36.12 15.7976 36.12 17.0602V21.6327C36.12 24.8396 31.5261 26.1967 29.3682 23.6274L27.6014 21.5237Z" stroke="black" stroke-width="3" stroke-linecap="round" stroke-linejoin="round"/>
<path d="M2.3833 28.3333V13.3333" stroke="black" stroke-width="3" stroke-linecap="round" stroke-linejoin="round"/>
<path d="M2.3833 28.3333V13.3333" stroke="black" stroke-width="3" stroke-linecap="round" stroke-linejoin="round"/>
<path d="M43.6167 28.3333V13.3333" stroke="black" stroke-width="3" stroke-linecap="round" stroke-linejoin="round"/>
</g>
<defs>
<clipPath id="clip0_2215_146">
<rect width="44.9817" height="40" fill="white" transform="translate(0.509277)"/>
</clipPath>
</defs>
</svg>
