<svg width="24" height="25" viewBox="0 0 24 25" fill="none" xmlns="http://www.w3.org/2000/svg">
<g clip-path="url(#clip0_2148_1565)">
<path fill-rule="evenodd" clip-rule="evenodd" d="M12 0.5C18.6274 0.5 24 5.87256 24 12.5C24 19.1274 18.6274 24.5 12 24.5C5.37256 24.5 0 19.1274 0 12.5C0 5.87256 5.37256 0.5 12 0.5ZM17.7758 7.06675L15.6348 17.8609C15.6348 17.8609 15.3355 18.6094 14.5121 18.25L9.58656 14.3725C9.58656 14.3725 15.066 9.44706 15.2905 9.23747C15.5151 9.02788 15.4402 8.98302 15.4402 8.98302C15.4551 8.7285 15.036 8.98302 15.036 8.98302L7.77512 13.5941L4.75098 12.576C4.75098 12.576 4.28687 12.4113 4.24202 12.0521C4.19709 11.6927 4.76596 11.4981 4.76596 11.4981L16.7878 6.78228C16.7878 6.78228 17.7758 6.34812 17.7758 7.06675ZM11.4659 15.9147L9.51176 17.6964C9.51176 17.6964 9.35897 17.8122 9.19186 17.7396L9.56605 14.4302L11.4659 15.9147Z" fill="black"/>
</g>
<defs>
<clipPath id="clip0_2148_1565">
<rect width="24" height="24" fill="white" transform="translate(0 0.5)"/>
</clipPath>
</defs>
</svg>
